<?xml version="1.0" encoding="utf-8"?>
<!-- Generator: Adobe Illustrator 16.1.0, SVG Export Plug-In . SVG Version: 6.00 Build 0)  -->
<!DOCTYPE svg PUBLIC "-//W3C//DTD SVG 1.1//EN" "http://www.w3.org/Graphics/SVG/1.1/DTD/svg11.dtd">
<svg version="1.1" id="Layer_1" xmlns="http://www.w3.org/2000/svg" xmlns:xlink="http://www.w3.org/1999/xlink" x="0px" y="0px"
	 width="100%" height="100%" viewBox="0 0 153 161" enable-background="new 0 0 153 161"
	 xml:space="preserve">
<path fill="#111111" d="M0,76.577c0,22.799,9.964,43.271,25.774,57.299c9.382-9.381,18.073-17.993,18.073-17.993l-33.747,45.727
	c0,0,26.074-6.891,44.738-11.585c6.891,2.036,14.187,3.129,21.738,3.129c42.292,0,76.576-34.285,76.576-76.577
	C153.153,34.285,118.869,0,76.577,0S0,34.285,0,76.577z"/>
<g>
	<g>
		<path fill="#F9FCFC" d="M72.078,54.898c0-0.162,0.108-0.189,0.242-0.054l9.373,9.049l9.266-9.049
			c0.107-0.108,0.24-0.081,0.24,0.054v18.583h-4.888v-8.405l-4.593,4.539c-0.105,0.106-0.133,0.106-0.24,0l-4.512-4.539v8.405
			h-4.888V54.898z"/>
		<path fill="#F9FCFC" d="M43.725,73.493c-5.136,0-9.52-3.873-9.52-9.385c0-5.513,4.356-9.358,9.251-9.358
			c3.954,0,6.374,1.667,7.906,3.927l-3.684,2.499c-0.7-1.075-1.829-2.177-4.142-2.177c-2.689,0-4.33,2.232-4.33,5.11
			c0,2.876,1.694,5.136,4.491,5.136c2.366,0,3.523-1.075,4.303-2.527l3.764,2.42C49.963,72.174,47.436,73.493,43.725,73.493z"/>
		<path fill="#F9FCFC" d="M51.222,64.107c0-5.513,4.546-9.358,9.816-9.358c5.271,0,9.814,3.846,9.814,9.358
			c0,5.512-4.543,9.385-9.814,9.385C55.768,73.493,51.222,69.62,51.222,64.107z M65.851,64.107c0-2.878-1.748-5.11-4.813-5.11
			c-3.066,0-4.814,2.232-4.814,5.11c0,2.876,1.748,5.136,4.814,5.136C64.103,69.243,65.851,66.984,65.851,64.107z"/>
		<path fill="#F9FCFC" d="M93.247,54.977h4.893v18.286h-4.893V54.977z"/>
		<path fill="#F9FCFC" d="M108.919,73.493c-5.137,0-9.52-3.873-9.52-9.385c0-5.513,4.356-9.358,9.251-9.358
			c3.954,0,6.372,1.667,7.906,3.927l-3.684,2.499c-0.699-1.075-1.829-2.177-4.141-2.177c-2.69,0-4.331,2.232-4.331,5.11
			c0,2.876,1.693,5.136,4.492,5.136c2.365,0,3.522-1.075,4.302-2.527l3.765,2.42C115.159,72.174,112.63,73.493,108.919,73.493z"/>
	</g>
	<path fill="#F9FCFC" d="M16.651,77.56h7.073c5.27,0,9.25,3.469,9.25,9.143s-3.98,9.143-9.25,9.143h-7.073V77.56z M23.186,91.705
		c2.958,0,4.787-1.964,4.787-5.002c0-3.039-1.829-5.002-4.787-5.002h-1.64v10.004H23.186z"/>
	<path fill="#F9FCFC" d="M34.155,77.56h4.894v18.286h-4.894V77.56z"/>
	<path fill="#F9FCFC" d="M55.8,95.846h-5.298l-2.555-4.195H46.12v4.195h-4.894V77.56h6.938c4.92,0,7.69,3.12,7.69,7.18
		c0,2.635-1.156,4.732-3.308,5.916L55.8,95.846z M47.921,87.752c2.206,0,3.012-1.236,3.012-3.012s-0.806-3.039-3.012-3.039H46.12
		v6.051H47.921z"/>
	<path fill="#F9FCFC" d="M57.223,77.56H70.05v4.114h-7.933v4.25h6.615v3.898h-6.615v1.91h8.309v4.113H57.223V77.56z"/>
	<path fill="#F9FCFC" d="M80.022,96.088c-5.136,0-9.519-3.872-9.519-9.385s4.356-9.357,9.25-9.357c3.954,0,6.373,1.666,7.907,3.926
		l-3.685,2.5c-0.7-1.075-1.83-2.178-4.142-2.178c-2.689,0-4.33,2.232-4.33,5.109s1.694,5.136,4.491,5.136
		c2.366,0,3.523-1.075,4.304-2.526l3.765,2.42C86.261,94.771,83.734,96.088,80.022,96.088z"/>
	<path fill="#F9FCFC" d="M93.281,81.674h-4.842V77.56h14.576v4.114h-4.843v14.172h-4.892V81.674z"/>
	<path fill="#F9FCFC" d="M102.825,86.703c0-5.513,4.544-9.357,9.814-9.357c5.271,0,9.814,3.845,9.814,9.357
		s-4.543,9.385-9.814,9.385C107.369,96.088,102.825,92.216,102.825,86.703z M117.453,86.703c0-2.877-1.747-5.109-4.813-5.109
		c-3.065,0-4.813,2.232-4.813,5.109s1.748,5.136,4.813,5.136C115.706,91.839,117.453,89.58,117.453,86.703z"/>
	<path fill="#F9FCFC" d="M138.21,95.846h-5.298l-2.554-4.195h-1.829v4.195h-4.895V77.56h6.938c4.92,0,7.69,3.12,7.69,7.18
		c0,2.635-1.155,4.732-3.309,5.916L138.21,95.846z M130.332,87.752c2.204,0,3.013-1.236,3.013-3.012s-0.809-3.039-3.013-3.039
		h-1.802v6.051H130.332z"/>
</g>
</svg>